<svg width="478" height="125" viewBox="0 0 478 125" fill="none" xmlns="http://www.w3.org/2000/svg">
<path d="M319 34.195V22.9756C319 18.0185 324.478 14 331.235 14H462.765C469.522 14 475 18.0185 475 22.9756V85.8044C475 90.7615 469.522 94.78 462.765 94.78H441.353L448.509 119.277C449.134 121.418 445.637 122.881 443.443 121.396L410.765 99.2678H331.235C324.478 99.2678 319 95.2493 319 90.2922V85.8044" stroke="url(#paint0_linear)" stroke-width="4.30079"/>
<path d="M2.376 58.984C2.376 55 3.192 51.472 4.824 48.4C6.504 45.28 8.76 42.856 11.592 41.128C14.424 39.4 17.544 38.536 20.952 38.536C23.784 38.536 26.28 39.088 28.44 40.192C30.648 41.248 32.424 42.616 33.768 44.296V39.112H43.92V98.008H33.768V73.528C32.424 75.256 30.624 76.696 28.368 77.848C26.112 79 23.568 79.576 20.736 79.576C17.376 79.576 14.28 78.712 11.448 76.984C8.664 75.208 6.456 72.76 4.824 69.64C3.192 66.52 2.376 62.968 2.376 58.984ZM33.768 59.056C33.768 56.608 33.264 54.496 32.256 52.72C31.248 50.944 29.928 49.6 28.296 48.688C26.712 47.776 25.008 47.32 23.184 47.32C21.408 47.32 19.704 47.776 18.072 48.688C16.488 49.6 15.192 50.944 14.184 52.72C13.176 54.448 12.672 56.536 12.672 58.984C12.672 61.432 13.176 63.568 14.184 65.392C15.192 67.168 16.488 68.512 18.072 69.424C19.704 70.336 21.408 70.792 23.184 70.792C25.008 70.792 26.712 70.336 28.296 69.424C29.928 68.512 31.248 67.168 32.256 65.392C33.264 63.616 33.768 61.504 33.768 59.056ZM91.4209 39.112V79H81.2689V73.96C79.9729 75.688 78.2689 77.056 76.1569 78.064C74.0929 79.024 71.8369 79.504 69.3889 79.504C66.2689 79.504 63.5089 78.856 61.1089 77.56C58.7089 76.216 56.8129 74.272 55.4209 71.728C54.0769 69.136 53.4049 66.064 53.4049 62.512V39.112H63.4849V61.072C63.4849 64.24 64.2769 66.688 65.8609 68.416C67.4449 70.096 69.6049 70.936 72.3409 70.936C75.1249 70.936 77.3089 70.096 78.8929 68.416C80.4769 66.688 81.2689 64.24 81.2689 61.072V39.112H91.4209ZM138.446 58.192C138.446 59.632 138.35 60.928 138.158 62.08H108.998C109.238 64.96 110.246 67.216 112.022 68.848C113.798 70.48 115.982 71.296 118.574 71.296C122.318 71.296 124.982 69.688 126.566 66.472H137.438C136.286 70.312 134.078 73.48 130.814 75.976C127.55 78.424 123.542 79.648 118.79 79.648C114.95 79.648 111.494 78.808 108.422 77.128C105.398 75.4 103.022 72.976 101.294 69.856C99.6144 66.736 98.7744 63.136 98.7744 59.056C98.7744 54.928 99.6144 51.304 101.294 48.184C102.974 45.064 105.326 42.664 108.35 40.984C111.374 39.304 114.854 38.464 118.79 38.464C122.582 38.464 125.966 39.28 128.942 40.912C131.966 42.544 134.294 44.872 135.926 47.896C137.606 50.872 138.446 54.304 138.446 58.192ZM128.006 55.312C127.958 52.72 127.022 50.656 125.198 49.12C123.374 47.536 121.142 46.744 118.502 46.744C116.006 46.744 113.894 47.512 112.166 49.048C110.486 50.536 109.454 52.624 109.07 55.312H128.006ZM161.068 79.648C157.804 79.648 154.876 79.072 152.284 77.92C149.692 76.72 147.628 75.112 146.092 73.096C144.604 71.08 143.788 68.848 143.644 66.4H153.796C153.988 67.936 154.732 69.208 156.028 70.216C157.372 71.224 159.028 71.728 160.996 71.728C162.916 71.728 164.404 71.344 165.46 70.576C166.564 69.808 167.116 68.824 167.116 67.624C167.116 66.328 166.444 65.368 165.1 64.744C163.804 64.072 161.716 63.352 158.836 62.584C155.86 61.864 153.412 61.12 151.492 60.352C149.62 59.584 147.988 58.408 146.596 56.824C145.252 55.24 144.58 53.104 144.58 50.416C144.58 48.208 145.204 46.192 146.452 44.368C147.748 42.544 149.572 41.104 151.924 40.048C154.324 38.992 157.132 38.464 160.348 38.464C165.1 38.464 168.892 39.664 171.724 42.064C174.556 44.416 176.116 47.608 176.404 51.64H166.756C166.612 50.056 165.94 48.808 164.74 47.896C163.588 46.936 162.028 46.456 160.06 46.456C158.236 46.456 156.82 46.792 155.812 47.464C154.852 48.136 154.372 49.072 154.372 50.272C154.372 51.616 155.044 52.648 156.388 53.368C157.732 54.04 159.82 54.736 162.652 55.456C165.532 56.176 167.908 56.92 169.78 57.688C171.652 58.456 173.26 59.656 174.604 61.288C175.996 62.872 176.716 64.984 176.764 67.624C176.764 69.928 176.116 71.992 174.82 73.816C173.572 75.64 171.748 77.08 169.348 78.136C166.996 79.144 164.236 79.648 161.068 79.648ZM196.774 47.392V66.688C196.774 68.032 197.086 69.016 197.71 69.64C198.382 70.216 199.486 70.504 201.022 70.504H205.702V79H199.366C190.87 79 186.622 74.872 186.622 66.616V47.392H181.87V39.112H186.622V29.248H196.774V39.112H205.702V47.392H196.774ZM218.064 34.36C216.288 34.36 214.8 33.808 213.6 32.704C212.448 31.552 211.872 30.136 211.872 28.456C211.872 26.776 212.448 25.384 213.6 24.28C214.8 23.128 216.288 22.552 218.064 22.552C219.84 22.552 221.304 23.128 222.456 24.28C223.656 25.384 224.256 26.776 224.256 28.456C224.256 30.136 223.656 31.552 222.456 32.704C221.304 33.808 219.84 34.36 218.064 34.36ZM223.032 39.112V79H212.952V39.112H223.032ZM250.703 79.648C246.863 79.648 243.407 78.808 240.335 77.128C237.263 75.4 234.839 72.976 233.063 69.856C231.335 66.736 230.471 63.136 230.471 59.056C230.471 54.976 231.359 51.376 233.135 48.256C234.959 45.136 237.431 42.736 240.551 41.056C243.671 39.328 247.151 38.464 250.991 38.464C254.831 38.464 258.311 39.328 261.431 41.056C264.551 42.736 266.999 45.136 268.775 48.256C270.599 51.376 271.511 54.976 271.511 59.056C271.511 63.136 270.575 66.736 268.703 69.856C266.879 72.976 264.383 75.4 261.215 77.128C258.095 78.808 254.591 79.648 250.703 79.648ZM250.703 70.864C252.527 70.864 254.231 70.432 255.815 69.568C257.447 68.656 258.743 67.312 259.703 65.536C260.663 63.76 261.143 61.6 261.143 59.056C261.143 55.264 260.135 52.36 258.119 50.344C256.151 48.28 253.727 47.248 250.847 47.248C247.967 47.248 245.543 48.28 243.575 50.344C241.655 52.36 240.695 55.264 240.695 59.056C240.695 62.848 241.631 65.776 243.503 67.84C245.423 69.856 247.823 70.864 250.703 70.864ZM301.01 38.536C305.762 38.536 309.602 40.048 312.53 43.072C315.458 46.048 316.922 50.224 316.922 55.6V79H306.842V56.968C306.842 53.8 306.05 51.376 304.466 49.696C302.882 47.968 300.722 47.104 297.986 47.104C295.202 47.104 292.994 47.968 291.362 49.696C289.778 51.376 288.986 53.8 288.986 56.968V79H278.906V39.112H288.986V44.08C290.33 42.352 292.034 41.008 294.098 40.048C296.21 39.04 298.514 38.536 301.01 38.536Z" fill="black"/>
<g filter="url(#filter0_d)">
<path d="M391.96 38.536C396.184 38.536 399.52 39.664 401.968 41.92C404.416 44.176 405.64 47.368 405.64 51.496C405.64 53.032 405.52 54.4 405.28 55.6L401.104 79H391.096L394.984 56.968C395.128 56.104 395.2 55.264 395.2 54.448C395.2 52.144 394.552 50.392 393.256 49.192C392.008 47.944 390.208 47.32 387.856 47.32C385.072 47.32 382.72 48.16 380.8 49.84C378.88 51.472 377.68 53.848 377.2 56.968V56.896L373.24 79H363.232L367.12 56.968C367.264 56.104 367.336 55.288 367.336 54.52C367.336 52.168 366.688 50.392 365.392 49.192C364.096 47.944 362.272 47.32 359.92 47.32C357.28 47.32 355 48.112 353.08 49.696C351.208 51.232 349.984 53.44 349.408 56.32L345.376 79H335.224L342.28 39.112H352.432L351.568 43.864C353.152 42.232 355.048 40.936 357.256 39.976C359.464 39.016 361.792 38.536 364.24 38.536C367.36 38.536 370.024 39.208 372.232 40.552C374.44 41.848 376 43.72 376.912 46.168C378.592 43.864 380.776 42.016 383.464 40.624C386.2 39.232 389.032 38.536 391.96 38.536ZM435.293 38.464C440.381 38.464 444.413 39.88 447.389 42.712C450.365 45.496 451.853 49.264 451.853 54.016C451.853 55.552 451.733 56.92 451.493 58.12C451.205 59.56 450.893 60.808 450.557 61.864H421.397C421.349 62.2 421.325 62.68 421.325 63.304C421.325 65.8 422.045 67.768 423.485 69.208C424.973 70.6 426.917 71.296 429.317 71.296C431.333 71.296 433.061 70.864 434.501 70C435.989 69.088 437.189 67.912 438.101 66.472H448.973C447.197 70.312 444.437 73.48 440.693 75.976C436.997 78.424 432.797 79.648 428.093 79.648C423.005 79.648 418.925 78.208 415.853 75.328C412.781 72.448 411.245 68.536 411.245 63.592C411.245 62.152 411.389 60.64 411.677 59.056C412.397 54.928 413.861 51.304 416.069 48.184C418.325 45.064 421.109 42.664 424.421 40.984C427.733 39.304 431.357 38.464 435.293 38.464ZM441.485 55.744C441.581 54.976 441.629 54.424 441.629 54.088C441.629 51.784 440.885 49.984 439.397 48.688C437.909 47.392 435.965 46.744 433.565 46.744C431.021 46.744 428.741 47.56 426.725 49.192C424.709 50.776 423.293 52.96 422.477 55.744H441.485Z" fill="url(#paint1_linear)"/>
</g>
<defs>
<filter id="filter0_d" x="331.224" y="38.464" width="124.629" height="49.184" filterUnits="userSpaceOnUse" color-interpolation-filters="sRGB">
<feFlood flood-opacity="0" result="BackgroundImageFix"/>
<feColorMatrix in="SourceAlpha" type="matrix" values="0 0 0 0 0 0 0 0 0 0 0 0 0 0 0 0 0 0 127 0"/>
<feOffset dy="4"/>
<feGaussianBlur stdDeviation="2"/>
<feColorMatrix type="matrix" values="0 0 0 0 0 0 0 0 0 0 0 0 0 0 0 0 0 0 0.25 0"/>
<feBlend mode="normal" in2="BackgroundImageFix" result="effect1_dropShadow"/>
<feBlend mode="normal" in="SourceGraphic" in2="effect1_dropShadow" result="shape"/>
</filter>
<linearGradient id="paint0_linear" x1="319" y1="14" x2="403.553" y2="156.704" gradientUnits="userSpaceOnUse">
<stop stop-color="#485BFF"/>
<stop offset="1" stop-color="#FF59F8"/>
</linearGradient>
<linearGradient id="paint1_linear" x1="334" y1="0" x2="427.207" y2="121.008" gradientUnits="userSpaceOnUse">
<stop stop-color="#485BFF"/>
<stop offset="1" stop-color="#FF59F8"/>
</linearGradient>
</defs>
</svg>
